<mxfile host="app.diagrams.net" modified="2024-05-04T02:46:20.743Z" agent="Mozilla/5.0 (X11; Linux x86_64) AppleWebKit/537.36 (KHTML, like Gecko) Chrome/124.0.0.0 Safari/537.36" etag="em8DbSlrO1txx22pqB64" version="24.2.7" type="device">
  <diagram name="Page-1" id="begQsxRJQQ6HrHRXt9xh">
    <mxGraphModel dx="1364" dy="1962" grid="1" gridSize="10" guides="1" tooltips="1" connect="1" arrows="1" fold="1" page="1" pageScale="1" pageWidth="827" pageHeight="1169" math="0" shadow="0">
      <root>
        <mxCell id="0" />
        <mxCell id="1" parent="0" />
        <mxCell id="uPywRMdGjZW0pS4mJ_62-1" value="Actor" style="shape=umlActor;verticalLabelPosition=bottom;verticalAlign=top;html=1;outlineConnect=0;" vertex="1" parent="1">
          <mxGeometry x="50" y="190" width="30" height="60" as="geometry" />
        </mxCell>
        <mxCell id="uPywRMdGjZW0pS4mJ_62-2" value="DNS" style="rounded=0;whiteSpace=wrap;html=1;" vertex="1" parent="1">
          <mxGeometry x="10" y="50" width="120" height="60" as="geometry" />
        </mxCell>
        <mxCell id="uPywRMdGjZW0pS4mJ_62-3" value="LB&lt;span style=&quot;color: rgba(0, 0, 0, 0); font-family: monospace; font-size: 0px; text-align: start; text-wrap: nowrap;&quot;&gt;%3CmxGraphModel%3E%3Croot%3E%3CmxCell%20id%3D%220%22%2F%3E%3CmxCell%20id%3D%221%22%20parent%3D%220%22%2F%3E%3CmxCell%20id%3D%222%22%20value%3D%22DNS%22%20style%3D%22rounded%3D0%3BwhiteSpace%3Dwrap%3Bhtml%3D1%3B%22%20vertex%3D%221%22%20parent%3D%221%22%3E%3CmxGeometry%20x%3D%2210%22%20y%3D%2250%22%20width%3D%22120%22%20height%3D%2260%22%20as%3D%22geometry%22%2F%3E%3C%2FmxCell%3E%3C%2Froot%3E%3C%2FmxGraphModel%3E&lt;/span&gt;" style="rhombus;whiteSpace=wrap;html=1;" vertex="1" parent="1">
          <mxGeometry x="210" y="180" width="80" height="80" as="geometry" />
        </mxCell>
        <mxCell id="uPywRMdGjZW0pS4mJ_62-4" value="DNS" style="rounded=0;whiteSpace=wrap;html=1;" vertex="1" parent="1">
          <mxGeometry x="20" y="60" width="120" height="60" as="geometry" />
        </mxCell>
        <mxCell id="uPywRMdGjZW0pS4mJ_62-5" value="DNS" style="rounded=0;whiteSpace=wrap;html=1;" vertex="1" parent="1">
          <mxGeometry x="30" y="70" width="120" height="60" as="geometry" />
        </mxCell>
        <mxCell id="uPywRMdGjZW0pS4mJ_62-6" value="LB&lt;span style=&quot;color: rgba(0, 0, 0, 0); font-family: monospace; font-size: 0px; text-align: start; text-wrap: nowrap;&quot;&gt;%3CmxGraphModel%3E%3Croot%3E%3CmxCell%20id%3D%220%22%2F%3E%3CmxCell%20id%3D%221%22%20parent%3D%220%22%2F%3E%3CmxCell%20id%3D%222%22%20value%3D%22DNS%22%20style%3D%22rounded%3D0%3BwhiteSpace%3Dwrap%3Bhtml%3D1%3B%22%20vertex%3D%221%22%20parent%3D%221%22%3E%3CmxGeometry%20x%3D%2210%22%20y%3D%2250%22%20width%3D%22120%22%20height%3D%2260%22%20as%3D%22geometry%22%2F%3E%3C%2FmxCell%3E%3C%2Froot%3E%3C%2FmxGraphModel%3E&lt;/span&gt;" style="rhombus;whiteSpace=wrap;html=1;" vertex="1" parent="1">
          <mxGeometry x="220" y="190" width="80" height="80" as="geometry" />
        </mxCell>
        <mxCell id="uPywRMdGjZW0pS4mJ_62-7" value="LB&lt;span style=&quot;color: rgba(0, 0, 0, 0); font-family: monospace; font-size: 0px; text-align: start; text-wrap: nowrap;&quot;&gt;%3CmxGraphModel%3E%3Croot%3E%3CmxCell%20id%3D%220%22%2F%3E%3CmxCell%20id%3D%221%22%20parent%3D%220%22%2F%3E%3CmxCell%20id%3D%222%22%20value%3D%22DNS%22%20style%3D%22rounded%3D0%3BwhiteSpace%3Dwrap%3Bhtml%3D1%3B%22%20vertex%3D%221%22%20parent%3D%221%22%3E%3CmxGeometry%20x%3D%2210%22%20y%3D%2250%22%20width%3D%22120%22%20height%3D%2260%22%20as%3D%22geometry%22%2F%3E%3C%2FmxCell%3E%3C%2Froot%3E%3C%2FmxGraphModel%3E&lt;/span&gt;" style="rhombus;whiteSpace=wrap;html=1;" vertex="1" parent="1">
          <mxGeometry x="230" y="200" width="80" height="80" as="geometry" />
        </mxCell>
        <mxCell id="uPywRMdGjZW0pS4mJ_62-25" style="edgeStyle=orthogonalEdgeStyle;rounded=0;orthogonalLoop=1;jettySize=auto;html=1;exitX=1;exitY=0.5;exitDx=0;exitDy=0;entryX=0;entryY=0.25;entryDx=0;entryDy=0;" edge="1" parent="1" source="uPywRMdGjZW0pS4mJ_62-8" target="uPywRMdGjZW0pS4mJ_62-14">
          <mxGeometry relative="1" as="geometry" />
        </mxCell>
        <mxCell id="uPywRMdGjZW0pS4mJ_62-8" value="API Gateway" style="rounded=0;whiteSpace=wrap;html=1;" vertex="1" parent="1">
          <mxGeometry x="350" y="200" width="120" height="60" as="geometry" />
        </mxCell>
        <mxCell id="uPywRMdGjZW0pS4mJ_62-24" style="edgeStyle=orthogonalEdgeStyle;rounded=0;orthogonalLoop=1;jettySize=auto;html=1;exitX=0.75;exitY=1;exitDx=0;exitDy=0;" edge="1" parent="1" source="uPywRMdGjZW0pS4mJ_62-9" target="uPywRMdGjZW0pS4mJ_62-8">
          <mxGeometry relative="1" as="geometry">
            <Array as="points">
              <mxPoint x="430" y="200" />
              <mxPoint x="430" y="200" />
            </Array>
          </mxGeometry>
        </mxCell>
        <mxCell id="uPywRMdGjZW0pS4mJ_62-9" value="Service Registry" style="rounded=0;whiteSpace=wrap;html=1;" vertex="1" parent="1">
          <mxGeometry x="350" y="30" width="120" height="60" as="geometry" />
        </mxCell>
        <mxCell id="uPywRMdGjZW0pS4mJ_62-10" value="IAM" style="rounded=0;whiteSpace=wrap;html=1;" vertex="1" parent="1">
          <mxGeometry x="510" y="10" width="120" height="60" as="geometry" />
        </mxCell>
        <mxCell id="uPywRMdGjZW0pS4mJ_62-11" value="Hotel" style="rounded=0;whiteSpace=wrap;html=1;" vertex="1" parent="1">
          <mxGeometry x="660" y="10" width="120" height="60" as="geometry" />
        </mxCell>
        <mxCell id="uPywRMdGjZW0pS4mJ_62-26" style="edgeStyle=orthogonalEdgeStyle;rounded=0;orthogonalLoop=1;jettySize=auto;html=1;exitX=0;exitY=0.75;exitDx=0;exitDy=0;entryX=1;entryY=1;entryDx=0;entryDy=0;" edge="1" parent="1" source="uPywRMdGjZW0pS4mJ_62-14" target="uPywRMdGjZW0pS4mJ_62-8">
          <mxGeometry relative="1" as="geometry" />
        </mxCell>
        <mxCell id="uPywRMdGjZW0pS4mJ_62-14" value="Booking" style="rounded=0;whiteSpace=wrap;html=1;" vertex="1" parent="1">
          <mxGeometry x="670" y="200" width="120" height="60" as="geometry" />
        </mxCell>
        <mxCell id="uPywRMdGjZW0pS4mJ_62-19" style="edgeStyle=orthogonalEdgeStyle;rounded=0;orthogonalLoop=1;jettySize=auto;html=1;exitX=0;exitY=1;exitDx=0;exitDy=-15;exitPerimeter=0;" edge="1" parent="1" source="uPywRMdGjZW0pS4mJ_62-16" target="uPywRMdGjZW0pS4mJ_62-14">
          <mxGeometry relative="1" as="geometry" />
        </mxCell>
        <mxCell id="uPywRMdGjZW0pS4mJ_62-16" value="MySQL" style="shape=cylinder3;whiteSpace=wrap;html=1;boundedLbl=1;backgroundOutline=1;size=15;" vertex="1" parent="1">
          <mxGeometry x="840" y="190" width="60" height="80" as="geometry" />
        </mxCell>
        <mxCell id="uPywRMdGjZW0pS4mJ_62-29" style="edgeStyle=orthogonalEdgeStyle;rounded=0;orthogonalLoop=1;jettySize=auto;html=1;exitX=0.5;exitY=1;exitDx=0;exitDy=0;exitPerimeter=0;entryX=1;entryY=0.75;entryDx=0;entryDy=0;" edge="1" parent="1" source="uPywRMdGjZW0pS4mJ_62-17" target="uPywRMdGjZW0pS4mJ_62-11">
          <mxGeometry relative="1" as="geometry" />
        </mxCell>
        <mxCell id="uPywRMdGjZW0pS4mJ_62-17" value="MySQL" style="shape=cylinder3;whiteSpace=wrap;html=1;boundedLbl=1;backgroundOutline=1;size=15;" vertex="1" parent="1">
          <mxGeometry x="810" y="-20" width="60" height="80" as="geometry" />
        </mxCell>
        <mxCell id="uPywRMdGjZW0pS4mJ_62-18" style="edgeStyle=orthogonalEdgeStyle;rounded=0;orthogonalLoop=1;jettySize=auto;html=1;exitX=1;exitY=0.5;exitDx=0;exitDy=0;entryX=0;entryY=0.5;entryDx=0;entryDy=0;entryPerimeter=0;" edge="1" parent="1" source="uPywRMdGjZW0pS4mJ_62-14" target="uPywRMdGjZW0pS4mJ_62-16">
          <mxGeometry relative="1" as="geometry" />
        </mxCell>
        <mxCell id="uPywRMdGjZW0pS4mJ_62-23" style="edgeStyle=orthogonalEdgeStyle;rounded=0;orthogonalLoop=1;jettySize=auto;html=1;exitX=0.5;exitY=0;exitDx=0;exitDy=0;entryX=0.442;entryY=1.1;entryDx=0;entryDy=0;entryPerimeter=0;" edge="1" parent="1" source="uPywRMdGjZW0pS4mJ_62-8" target="uPywRMdGjZW0pS4mJ_62-9">
          <mxGeometry relative="1" as="geometry" />
        </mxCell>
        <mxCell id="uPywRMdGjZW0pS4mJ_62-28" style="edgeStyle=orthogonalEdgeStyle;rounded=0;orthogonalLoop=1;jettySize=auto;html=1;exitX=1;exitY=0;exitDx=0;exitDy=0;entryX=0;entryY=0;entryDx=0;entryDy=27.5;entryPerimeter=0;" edge="1" parent="1" source="uPywRMdGjZW0pS4mJ_62-11" target="uPywRMdGjZW0pS4mJ_62-17">
          <mxGeometry relative="1" as="geometry" />
        </mxCell>
        <mxCell id="uPywRMdGjZW0pS4mJ_62-30" value="" style="endArrow=classic;html=1;rounded=0;" edge="1" parent="1" source="uPywRMdGjZW0pS4mJ_62-8" target="uPywRMdGjZW0pS4mJ_62-10">
          <mxGeometry width="50" height="50" relative="1" as="geometry">
            <mxPoint x="520" y="370" as="sourcePoint" />
            <mxPoint x="570" y="320" as="targetPoint" />
          </mxGeometry>
        </mxCell>
        <mxCell id="uPywRMdGjZW0pS4mJ_62-31" value="" style="endArrow=classic;html=1;rounded=0;entryX=1;entryY=0.25;entryDx=0;entryDy=0;" edge="1" parent="1" target="uPywRMdGjZW0pS4mJ_62-8">
          <mxGeometry width="50" height="50" relative="1" as="geometry">
            <mxPoint x="580" y="80" as="sourcePoint" />
            <mxPoint x="570" y="320" as="targetPoint" />
          </mxGeometry>
        </mxCell>
        <mxCell id="uPywRMdGjZW0pS4mJ_62-32" value="" style="endArrow=classic;html=1;rounded=0;" edge="1" parent="1">
          <mxGeometry width="50" height="50" relative="1" as="geometry">
            <mxPoint x="90" y="210" as="sourcePoint" />
            <mxPoint x="200" y="210" as="targetPoint" />
          </mxGeometry>
        </mxCell>
        <mxCell id="uPywRMdGjZW0pS4mJ_62-33" value="" style="endArrow=classic;html=1;rounded=0;" edge="1" parent="1" source="uPywRMdGjZW0pS4mJ_62-7">
          <mxGeometry width="50" height="50" relative="1" as="geometry">
            <mxPoint x="520" y="370" as="sourcePoint" />
            <mxPoint x="90" y="240" as="targetPoint" />
          </mxGeometry>
        </mxCell>
        <mxCell id="uPywRMdGjZW0pS4mJ_62-34" value="1" style="text;html=1;align=center;verticalAlign=middle;resizable=0;points=[];autosize=1;strokeColor=none;fillColor=none;" vertex="1" parent="1">
          <mxGeometry x="145" y="188" width="30" height="30" as="geometry" />
        </mxCell>
        <mxCell id="uPywRMdGjZW0pS4mJ_62-43" value="payment" style="rounded=0;whiteSpace=wrap;html=1;" vertex="1" parent="1">
          <mxGeometry x="680" y="380" width="120" height="60" as="geometry" />
        </mxCell>
        <mxCell id="uPywRMdGjZW0pS4mJ_62-45" value="" style="endArrow=classic;html=1;rounded=0;entryX=0.575;entryY=1;entryDx=0;entryDy=0;entryPerimeter=0;exitX=0.5;exitY=0;exitDx=0;exitDy=0;" edge="1" parent="1" source="uPywRMdGjZW0pS4mJ_62-43" target="uPywRMdGjZW0pS4mJ_62-14">
          <mxGeometry width="50" height="50" relative="1" as="geometry">
            <mxPoint x="750" y="370" as="sourcePoint" />
            <mxPoint x="800" y="320" as="targetPoint" />
          </mxGeometry>
        </mxCell>
        <mxCell id="uPywRMdGjZW0pS4mJ_62-46" value="" style="endArrow=classic;html=1;rounded=0;exitX=0.442;exitY=1.067;exitDx=0;exitDy=0;exitPerimeter=0;entryX=0;entryY=0.25;entryDx=0;entryDy=0;" edge="1" parent="1" source="uPywRMdGjZW0pS4mJ_62-8" target="uPywRMdGjZW0pS4mJ_62-43">
          <mxGeometry width="50" height="50" relative="1" as="geometry">
            <mxPoint x="750" y="370" as="sourcePoint" />
            <mxPoint x="800" y="320" as="targetPoint" />
          </mxGeometry>
        </mxCell>
        <mxCell id="uPywRMdGjZW0pS4mJ_62-47" value="" style="endArrow=classic;html=1;rounded=0;exitX=0;exitY=0.75;exitDx=0;exitDy=0;entryX=0.075;entryY=1.05;entryDx=0;entryDy=0;entryPerimeter=0;" edge="1" parent="1" source="uPywRMdGjZW0pS4mJ_62-43" target="uPywRMdGjZW0pS4mJ_62-8">
          <mxGeometry width="50" height="50" relative="1" as="geometry">
            <mxPoint x="750" y="370" as="sourcePoint" />
            <mxPoint x="800" y="320" as="targetPoint" />
          </mxGeometry>
        </mxCell>
      </root>
    </mxGraphModel>
  </diagram>
</mxfile>
